<svg width="107" height="34" viewBox="0 0 107 34" fill="none" xmlns="http://www.w3.org/2000/svg">
<path fill-rule="evenodd" clip-rule="evenodd" d="M100.267 3.23136C100.871 2.9528 101.475 2.68816 102.08 2.40959C102.108 2.36781 102.123 2.32602 102.152 2.28424C102.209 2.18674 102.281 2.10317 102.353 2.03353C102.482 1.90817 102.626 1.81068 102.828 1.72711C103.058 1.62961 103.303 1.58782 103.561 1.60175C103.677 1.61568 103.792 1.62961 103.892 1.65747C102.554 3.70492 101.202 5.75238 99.864 7.79983C100.54 7.79983 101.202 7.79983 101.878 7.79983C101.936 7.70233 101.993 7.61876 102.051 7.52127C102.123 7.54912 102.195 7.57698 102.267 7.60484C102.396 7.64662 102.526 7.68841 102.641 7.71627C102.756 7.74412 102.871 7.75805 103 7.77198C103.13 7.78591 103.259 7.79983 103.389 7.79983C103.561 7.79983 103.734 7.78591 103.921 7.75805C104.123 7.73019 104.295 7.68841 104.468 7.6327C104.641 7.57698 104.813 7.49341 105 7.38198C105.216 7.25663 105.389 7.13128 105.561 6.97807C105.705 6.85271 105.835 6.71343 105.95 6.57415C106.065 6.42094 106.166 6.26772 106.252 6.10059C106.338 5.93345 106.41 5.75238 106.468 5.57131C106.511 5.43203 106.54 5.27882 106.568 5.12561C106.597 4.95847 106.597 4.7774 106.597 4.59633C105.993 4.86097 105.389 5.13953 104.784 5.40417C104.727 5.50167 104.655 5.59917 104.583 5.68274C104.497 5.78024 104.425 5.84988 104.338 5.90559C104.223 5.98916 104.094 6.0588 103.921 6.11451C103.777 6.17023 103.605 6.19808 103.446 6.19808C103.288 6.19808 103.13 6.18415 102.972 6.14237C104.31 4.09491 105.662 2.04746 107 0C106.324 0 105.648 0 104.986 0C104.928 0.0974979 104.871 0.181068 104.813 0.278565C104.784 0.264637 104.756 0.250711 104.727 0.250711C104.669 0.222855 104.612 0.208927 104.554 0.18107C104.468 0.153214 104.353 0.111427 104.223 0.0835705C104.065 0.0557139 103.907 0.0278574 103.792 0.0139291C103.576 8.49907e-07 103.36 8.49907e-07 103.13 0.0139291C102.914 0.0417857 102.698 0.0835705 102.482 0.153212C102.353 0.194997 102.238 0.236781 102.108 0.292495C101.907 0.376064 101.734 0.487492 101.576 0.598918C101.403 0.724273 101.245 0.863556 101.087 1.0307C100.943 1.19783 100.814 1.3789 100.698 1.5739C100.54 1.83853 100.439 2.10317 100.382 2.33995C100.339 2.52102 100.31 2.72994 100.296 2.9528C100.252 3.06422 100.252 3.14779 100.267 3.23136Z" fill="black"/>
<path d="M24.8922 4.80809L12.8987 26.1133H21.7807V33.288H0L12.3329 11.8185H2.14978V4.80809H24.8922Z" fill="currentColor"/>
<path d="M54.0464 19.3219C54.0464 20.0521 53.9898 20.7824 53.8767 21.5127H31.7565C32.2468 23.0462 33.152 24.2876 34.4721 25.2369C35.7921 26.1498 37.2819 26.6062 38.9413 26.6062C41.242 26.6062 43.1466 25.7481 44.6552 24.032L49.2942 30.0019C46.3901 32.6673 42.9392 34 38.9413 34C34.6795 34 31.0777 32.5943 28.1359 29.7828C25.2318 26.9348 23.7797 23.4478 23.7797 19.3219C23.7797 15.2325 25.2506 11.782 28.1924 8.97054C31.1342 6.12255 34.7172 4.69855 38.9413 4.69855C43.1655 4.69855 46.7296 6.12255 49.6337 8.97054C52.5755 11.782 54.0464 15.2325 54.0464 19.3219ZM45.5038 15.981C44.1084 13.3886 41.9209 12.0924 38.9413 12.0924C35.9241 12.0924 33.7178 13.3886 32.3223 15.981H45.5038Z" fill="currentColor"/>
<path d="M70.366 12.0924C68.2916 12.0924 66.519 12.8044 65.0481 14.2284C63.5772 15.6159 62.8417 17.3137 62.8417 19.3219V33.1785H55.2044V19.3219C55.2044 15.2325 56.6753 11.782 59.6171 8.97054C62.5589 6.12255 66.1418 4.69855 70.366 4.69855V12.0924Z" fill="currentColor"/>
<path d="M101.592 19.3219C101.592 23.4113 100.121 26.88 97.1794 29.728C94.2753 32.576 90.7112 34 86.4871 34C82.2253 34 78.6234 32.5943 75.6816 29.7828C72.7775 26.9348 71.3255 23.4478 71.3255 19.3219C71.3255 15.2325 72.7964 11.782 75.7382 8.97054C78.68 6.12255 82.263 4.69855 86.4871 4.69855C90.7112 4.69855 94.2753 6.12255 97.1794 8.97054C100.121 11.782 101.592 15.2325 101.592 19.3219ZM93.9548 19.3219C93.9548 17.3502 93.2193 15.6524 91.7484 14.2284C90.2775 12.8044 88.5237 12.0924 86.4871 12.0924C84.4128 12.0924 82.6401 12.8044 81.1692 14.2284C79.6983 15.6159 78.9629 17.3137 78.9629 19.3219C78.9629 21.3301 79.6983 23.0462 81.1692 24.4702C82.6401 25.8942 84.4128 26.6062 86.4871 26.6062C88.5615 26.6062 90.3152 25.8942 91.7484 24.4702C93.2193 23.0462 93.9548 21.3301 93.9548 19.3219Z" fill="currentColor"/>
</svg>
